<?xml version="1.0" standalone="no"?>
<!DOCTYPE svg PUBLIC "-//W3C//DTD SVG 20010904//EN"
 "http://www.w3.org/TR/2001/REC-SVG-20010904/DTD/svg10.dtd">
<svg version="1.0" xmlns="http://www.w3.org/2000/svg"
 width="116.000000pt" height="118.000000pt" viewBox="0 0 116.000000 118.000000"
 preserveAspectRatio="xMidYMid meet">

<g transform="translate(0.000000,118.000000) scale(0.100000,-0.100000)"
fill="#000000" stroke="none">
<path d="M393 793 c9 -2 23 -2 30 0 6 3 -1 5 -18 5 -16 0 -22 -2 -12 -5z"/>
<path d="M288 776 c-105 -38 -201 -127 -240 -224 -34 -86 -32 -216 4 -295 38
-80 124 -168 201 -203 54 -26 74 -29 157 -29 86 0 101 3 160 31 155 74 230
210 230 414 0 62 -2 67 -35 99 -20 18 -42 46 -50 61 -8 16 -42 48 -75 71 -33
23 -60 45 -60 49 0 12 -192 -1 -250 -17 -104 -28 -183 -92 -231 -185 -18 -33
-24 -65 -27 -140 -4 -87 -2 -101 22 -153 14 -31 45 -80 68 -108 l43 -51 -35
26 c-169 128 -179 398 -22 553 53 53 99 79 175 100 29 8 41 14 27 14 -14 0
-41 -6 -62 -13z m170 -122 c50 -34 17 -114 -48 -114 -35 0 -87 -34 -110 -72
-68 -112 63 -244 181 -183 36 19 69 70 69 106 0 62 69 101 112 62 41 -37 11
-162 -55 -231 -54 -57 -102 -77 -187 -77 -65 0 -82 4 -129 30 -65 36 -106 88
-128 164 -19 68 -8 138 32 207 53 91 201 152 263 108z"/>
</g>
</svg>
